<svg xmlns="http://www.w3.org/2000/svg" viewBox="0 0 100 100" role="img" aria-label="Set33">
  <path
    fill="#000000"
    transform="translate(23.38 12.95) scale(1.1188)"
    d="M29.016 59.04H6.264Q3.672 59.04 3.672 56.448V48.024Q3.672 45.432 6.264 45.432H25.632Q26.568 45.432 27.036 44.82Q27.504 44.208 27.504 43.344Q27.504 42.12 27.036 41.544Q26.568 40.968 25.632 40.896L14.832 39.384Q9.792 38.592 6.732 36.036Q3.672 33.48 3.672 27.432V19.872Q3.672 13.68 7.632 10.44Q11.592 7.2 18.576 7.2H38.736Q41.328 7.2 41.328 9.792V18.36Q41.328 20.952 38.736 20.952H21.96Q20.016 20.952 20.016 23.112Q20.016 25.2 21.96 25.416L32.688 26.856Q36.072 27.36 38.592 28.62Q41.112 29.88 42.516 32.328Q43.92 34.776 43.92 38.808V46.368Q43.92 52.488 39.96 55.764Q36 59.04 29.016 59.04Z"
  />
</svg>
